# xmcd
# 
# Track frame offsets:
#     183
#     12545
#     29468
#     42735
#     54118
#     67795
#     83893
#     91935
#     105975
#     114580
#     130435
#     138843
#     157930
#     170248
#     180938
#     193310
# 
# Disc length: 2745
# 
# Revision: 4
# Processed by: cddbd v1.5.1PL2 Copyright (c) Steve Scherf et al.
# Submitted via: BonkEnc v1.0beta4
# 
DISCID=d10ab710
DTITLE=Various Artist - Country Show - Volume 4
DYEAR=0
DGENRE=Country
TTITLE0=Lynn Anderson - Stand By Your Man
TTITLE1=Willie Nelson - I Let My Mind Wonder
TTITLE2=Alabama - Patches
TTITLE3=Dolly Parton - Makin' Believe
TTITLE4=George Jones - A Good Year For The Roses
TTITLE5=Lynn Anderson - Midnight Train To Georgia
TTITLE6=Willie Nelson - Things To Remember
TTITLE7=Kenny Rogers - Sunshine
TTITLE8=Waylon Jennings - Abilene
TTITLE9=Lynn Anderson - You Need Me
TTITLE10=Willie Nelson - Slow Down Old World
TTITLE11=Alabama - I Want To Be With You Tonight
TTITLE12=Lynn Anderson - Listen To A Country Song
TTITLE13=Waylon Jennings - Burning Memories
TTITLE14=George Jones - Blue Side Of Lonesome
TTITLE15=Willie Nelson - I Just Can't Understand
EXTD=
EXTT0=
EXTT1=
EXTT2=
EXTT3=
EXTT4=
EXTT5=
EXTT6=
EXTT7=
EXTT8=
EXTT9=
EXTT10=
EXTT11=
EXTT12=
EXTT13=
EXTT14=
EXTT15=
PLAYORDER=
